<svg width="35" height="38" viewBox="0 0 35 38" fill="none" xmlns="http://www.w3.org/2000/svg">
<path d="M11.839 29.8331C11.839 29.9863 11.6804 30.1089 11.4804 30.1089C11.2529 30.1319 11.0943 30.0093 11.0943 29.8331C11.0943 29.6798 11.2529 29.5573 11.4528 29.5573C11.6597 29.5343 11.839 29.6569 11.839 29.8331ZM9.69458 29.4883C9.64631 29.6415 9.78422 29.8177 9.99107 29.8637C10.1703 29.9403 10.3772 29.8637 10.4186 29.7105C10.4599 29.5573 10.3289 29.3811 10.1221 29.3121C9.94281 29.2585 9.74285 29.3351 9.69458 29.4883ZM12.7422 29.3581C12.5423 29.4117 12.4044 29.5573 12.4251 29.7335C12.4457 29.8867 12.625 29.9863 12.8319 29.9327C13.0318 29.879 13.1697 29.7335 13.1491 29.5802C13.1284 29.4347 12.9422 29.3351 12.7422 29.3581ZM17.2793 0C7.71567 0 0.399902 8.06734 0.399902 18.6935C0.399902 27.1899 5.21273 34.4605 12.0872 37.0194C12.9698 37.1956 13.2801 36.5903 13.2801 36.0923C13.2801 35.6173 13.2594 32.9972 13.2594 31.3883C13.2594 31.3883 8.43277 32.5375 7.41918 29.1052C7.41918 29.1052 6.63313 26.8758 5.50232 26.3012C5.50232 26.3012 3.92333 25.0984 5.61264 25.1214C5.61264 25.1214 7.32954 25.2746 8.27418 27.098C9.78422 30.0552 12.3147 29.2048 13.3007 28.6992C13.4593 27.4734 13.9075 26.623 14.404 26.1173C10.5496 25.6423 6.66071 25.0218 6.66071 17.6516C6.66071 15.5448 7.18474 14.4875 8.28797 13.1391C8.10869 12.6411 7.5226 10.5879 8.46724 7.9371C9.90833 7.43911 13.2249 10.0056 13.2249 10.0056C14.6039 9.57661 16.0864 9.35444 17.5551 9.35444C19.0237 9.35444 20.5062 9.57661 21.8852 10.0056C21.8852 10.0056 25.2018 7.43145 26.6429 7.9371C27.5875 10.5956 27.0014 12.6411 26.8222 13.1391C27.9254 14.4952 28.6011 15.5524 28.6011 17.6516C28.6011 25.0448 24.5399 25.6347 20.6855 26.1173C21.3198 26.7226 21.8576 27.8718 21.8576 29.6722C21.8576 32.254 21.837 35.4488 21.837 36.077C21.837 36.575 22.1541 37.1802 23.0298 37.004C29.925 34.4605 34.5999 27.1899 34.5999 18.6935C34.5999 8.06734 26.8428 0 17.2793 0ZM7.102 26.4238C7.01236 26.5004 7.03305 26.6766 7.15027 26.8222C7.26059 26.9448 7.41918 26.9984 7.50881 26.8988C7.59845 26.8222 7.57777 26.646 7.46055 26.5004C7.35022 26.3778 7.19164 26.3242 7.102 26.4238ZM6.35732 25.8032C6.30906 25.9028 6.37801 26.0254 6.51591 26.102C6.62623 26.1786 6.76414 26.1556 6.8124 26.0484C6.86067 25.9488 6.79172 25.8262 6.65381 25.7496C6.51591 25.7036 6.40559 25.7266 6.35732 25.8032ZM8.59135 28.5306C8.48103 28.6302 8.5224 28.8601 8.68099 29.0056C8.83958 29.1819 9.03954 29.2048 9.12918 29.0823C9.21881 28.9827 9.17744 28.7528 9.03954 28.6073C8.88785 28.431 8.68099 28.4081 8.59135 28.5306ZM7.80531 27.4044C7.69498 27.4811 7.69498 27.6802 7.80531 27.8565C7.91563 28.0327 8.1018 28.1093 8.19143 28.0327C8.30176 27.9331 8.30176 27.7339 8.19143 27.5577C8.0949 27.3815 7.91563 27.3048 7.80531 27.4044Z" fill="white"/>
</svg>
