<svg width="38" height="38" viewBox="0 0 38 38" fill="none" xmlns="http://www.w3.org/2000/svg">
<path d="M12.6374 29.8331C12.6374 29.9863 12.4648 30.1089 12.2473 30.1089C11.9997 30.1319 11.8271 30.0093 11.8271 29.8331C11.8271 29.6798 11.9997 29.5573 12.2173 29.5573C12.4423 29.5343 12.6374 29.6569 12.6374 29.8331ZM10.304 29.4883C10.2515 29.6415 10.4015 29.8177 10.6266 29.8637C10.8217 29.9403 11.0468 29.8637 11.0918 29.7105C11.1368 29.5573 10.9943 29.381 10.7692 29.3121C10.5741 29.2585 10.3565 29.3351 10.304 29.4883ZM13.6203 29.3581C13.4027 29.4117 13.2527 29.5573 13.2752 29.7335C13.2977 29.8867 13.4928 29.9863 13.7179 29.9327C13.9354 29.879 14.0855 29.7335 14.063 29.5802C14.0405 29.4347 13.8379 29.3351 13.6203 29.3581ZM18.5573 0C8.15062 0 0.189941 8.06734 0.189941 18.6935C0.189941 27.1899 5.42704 34.4605 12.9075 37.0194C13.8679 37.1956 14.2055 36.5903 14.2055 36.0923C14.2055 35.6173 14.183 32.9972 14.183 31.3883C14.183 31.3883 8.93094 32.5375 7.828 29.1052C7.828 29.1052 6.97265 26.8758 5.74216 26.3012C5.74216 26.3012 4.02397 25.0984 5.86221 25.1214C5.86221 25.1214 7.73046 25.2746 8.75837 27.098C10.4015 30.0552 13.1551 29.2048 14.2281 28.6992C14.4006 27.4734 14.8883 26.623 15.4285 26.1173C11.2344 25.6423 7.00267 25.0218 7.00267 17.6516C7.00267 15.5448 7.57289 14.4875 8.77337 13.1391C8.5783 12.6411 7.94054 10.5879 8.96845 7.9371C10.5366 7.43911 14.1455 10.0056 14.1455 10.0056C15.6461 9.57661 17.2593 9.35444 18.8574 9.35444C20.4555 9.35444 22.0687 9.57661 23.5693 10.0056C23.5693 10.0056 27.1782 7.43145 28.7464 7.9371C29.7743 10.5956 29.1365 12.6411 28.9414 13.1391C30.1419 14.4952 30.8772 15.5524 30.8772 17.6516C30.8772 25.0448 26.4579 25.6347 22.2638 26.1173C22.954 26.7226 23.5393 27.8718 23.5393 29.6722C23.5393 32.254 23.5168 35.4488 23.5168 36.077C23.5168 36.575 23.8619 37.1802 24.8148 37.004C32.3178 34.4605 37.4048 27.1899 37.4048 18.6935C37.4048 8.06734 28.9639 0 18.5573 0V0ZM7.48286 26.4238C7.38532 26.5004 7.40783 26.6766 7.53538 26.8222C7.65543 26.9448 7.828 26.9984 7.92553 26.8988C8.02307 26.8222 8.00056 26.646 7.87301 26.5004C7.75297 26.3778 7.5804 26.3242 7.48286 26.4238ZM6.67253 25.8032C6.62001 25.9028 6.69504 26.0254 6.8451 26.102C6.96515 26.1786 7.11521 26.1556 7.16773 26.0484C7.22025 25.9488 7.14522 25.8262 6.99516 25.7496C6.8451 25.7036 6.72505 25.7266 6.67253 25.8032ZM9.10351 28.5306C8.98346 28.6302 9.02848 28.8601 9.20104 29.0056C9.37361 29.1819 9.5912 29.2048 9.68874 29.0823C9.78628 28.9827 9.74126 28.7528 9.5912 28.6073C9.42613 28.431 9.20104 28.4081 9.10351 28.5306ZM8.24816 27.4044C8.12812 27.481 8.12812 27.6802 8.24816 27.8565C8.36821 28.0327 8.57079 28.1093 8.66833 28.0327C8.78838 27.9331 8.78838 27.7339 8.66833 27.5577C8.56329 27.3815 8.36821 27.3048 8.24816 27.4044Z" fill="white"/>
</svg>
