<svg width="35" height="38" viewBox="0 0 35 38" fill="none" xmlns="http://www.w3.org/2000/svg">
<path d="M17.1038 9.25521C12.2513 9.25521 8.33732 13.6041 8.33732 18.9958C8.33732 24.3874 12.2513 28.7363 17.1038 28.7363C21.9563 28.7363 25.8703 24.3874 25.8703 18.9958C25.8703 13.6041 21.9563 9.25521 17.1038 9.25521ZM17.1038 25.3284C13.968 25.3284 11.4045 22.4885 11.4045 18.9958C11.4045 15.5031 13.9604 12.6631 17.1038 12.6631C20.2472 12.6631 22.8032 15.5031 22.8032 18.9958C22.8032 22.4885 20.2396 25.3284 17.1038 25.3284ZM28.2737 8.85678C28.2737 10.1199 27.3581 11.1287 26.2289 11.1287C25.0921 11.1287 24.1842 10.1114 24.1842 8.85678C24.1842 7.60212 25.0997 6.58483 26.2289 6.58483C27.3581 6.58483 28.2737 7.60212 28.2737 8.85678ZM34.0798 11.1626C33.9501 8.11924 33.3245 5.42342 31.3179 3.20234C29.3189 0.98126 26.8927 0.286113 24.1536 0.133519C21.3307 -0.0445064 12.8693 -0.0445064 10.0464 0.133519C7.31495 0.277635 4.88871 0.972783 2.88211 3.19387C0.875505 5.41495 0.257501 8.11076 0.120167 11.1542C-0.0400558 14.2908 -0.0400558 23.6922 0.120167 26.8289C0.249872 29.8723 0.875505 32.5681 2.88211 34.7892C4.88871 37.0103 7.30732 37.7054 10.0464 37.858C12.8693 38.036 21.3307 38.036 24.1536 37.858C26.8927 37.7139 29.3189 37.0187 31.3179 34.7892C33.3169 32.5681 33.9425 29.8723 34.0798 26.8289C34.2401 23.6922 34.2401 14.2993 34.0798 11.1626ZM30.4328 30.1944C29.8377 31.856 28.6857 33.1361 27.1826 33.8058C24.9319 34.7977 19.5911 34.5688 17.1038 34.5688C14.6165 34.5688 9.26814 34.7892 7.02502 33.8058C5.5296 33.1446 4.37752 31.8645 3.77478 30.1944C2.88211 27.6936 3.08811 21.7594 3.08811 18.9958C3.08811 16.2321 2.88974 10.2895 3.77478 7.7971C4.36989 6.13553 5.52197 4.85544 7.02502 4.18572C9.27577 3.19386 14.6165 3.42275 17.1038 3.42275C19.5911 3.42275 24.9395 3.20234 27.1826 4.18572C28.678 4.84696 29.8301 6.12705 30.4328 7.7971C31.3255 10.2979 31.1195 16.2321 31.1195 18.9958C31.1195 21.7594 31.3255 27.7021 30.4328 30.1944Z" fill="white"/>
</svg>
