<svg width="38" height="38" viewBox="0 0 38 38" fill="none" xmlns="http://www.w3.org/2000/svg">
<path d="M18.6116 9.25521C13.3314 9.25521 9.07229 13.6041 9.07229 18.9958C9.07229 24.3874 13.3314 28.7363 18.6116 28.7363C23.8918 28.7363 28.1509 24.3874 28.1509 18.9958C28.1509 13.6041 23.8918 9.25521 18.6116 9.25521ZM18.6116 25.3284C15.1994 25.3284 12.4098 22.4885 12.4098 18.9958C12.4098 15.5031 15.1911 12.6631 18.6116 12.6631C22.0321 12.6631 24.8134 15.5031 24.8134 18.9958C24.8134 22.4885 22.0238 25.3284 18.6116 25.3284V25.3284ZM30.7661 8.85678C30.7661 10.1199 29.7698 11.1287 28.5411 11.1287C27.3041 11.1287 26.3161 10.1114 26.3161 8.85678C26.3161 7.60212 27.3124 6.58483 28.5411 6.58483C29.7698 6.58483 30.7661 7.60212 30.7661 8.85678ZM37.0841 11.1626C36.943 8.11924 36.2622 5.42342 34.0787 3.20234C31.9035 0.98126 29.2634 0.286113 26.2829 0.133519C23.211 -0.0445064 14.0038 -0.0445064 10.932 0.133519C7.95979 0.277635 5.31967 0.972783 3.13618 3.19386C0.952684 5.41495 0.280201 8.11076 0.130761 11.1542C-0.0435869 14.2908 -0.0435869 23.6922 0.130761 26.8289C0.271899 29.8723 0.952684 32.5681 3.13618 34.7892C5.31967 37.0103 7.95149 37.7054 10.932 37.858C14.0038 38.036 23.211 38.036 26.2829 37.858C29.2634 37.7139 31.9035 37.0187 34.0787 34.7892C36.2539 32.5681 36.9347 29.8723 37.0841 26.8289C37.2585 23.6922 37.2585 14.2993 37.0841 11.1626V11.1626ZM33.1156 30.1944C32.4681 31.856 31.2144 33.1361 29.5789 33.8058C27.1297 34.7977 21.3181 34.5688 18.6116 34.5688C15.9051 34.5688 10.0852 34.7892 7.64431 33.8058C6.01706 33.1446 4.76342 31.8645 4.10754 30.1944C3.13618 27.6936 3.36034 21.7594 3.36034 18.9958C3.36034 16.2321 3.14448 10.2895 4.10754 7.7971C4.75512 6.13553 6.00876 4.85544 7.64431 4.18572C10.0935 3.19386 15.9051 3.42275 18.6116 3.42275C21.3181 3.42275 27.138 3.20234 29.5789 4.18572C31.2061 4.84696 32.4598 6.12705 33.1156 7.7971C34.087 10.2979 33.8628 16.2321 33.8628 18.9958C33.8628 21.7594 34.087 27.7021 33.1156 30.1944Z" fill="white"/>
</svg>
