<svg width="38" height="38" viewBox="0 0 38 38" fill="none" xmlns="http://www.w3.org/2000/svg">
<path d="M35.3418 0H3.43505C1.97304 0 0.785156 1.22991 0.785156 2.73973V35.2603C0.785156 36.7701 1.97304 38 3.43505 38H35.3418C36.8038 38 38 36.7701 38 35.2603V2.73973C38 1.22991 36.8038 0 35.3418 0V0ZM12.0327 32.5714H6.51691V14.4366H12.041V32.5714H12.0327ZM9.2748 11.9598C7.50543 11.9598 6.07665 10.4924 6.07665 8.6942C6.07665 6.89598 7.50543 5.42857 9.2748 5.42857C11.0359 5.42857 12.473 6.89598 12.473 8.6942C12.473 10.5009 11.0442 11.9598 9.2748 11.9598V11.9598ZM32.7085 32.5714H27.1928V23.75C27.1928 21.6464 27.1512 18.9406 24.3269 18.9406C21.4527 18.9406 21.0124 21.2308 21.0124 23.5973V32.5714H15.4967V14.4366H20.7882V16.9134H20.8629C21.6022 15.4884 23.4048 13.9871 26.088 13.9871C31.6702 13.9871 32.7085 17.7446 32.7085 22.6304V32.5714Z" fill="white"/>
</svg>
