<svg width="35" height="38" viewBox="0 0 35 38" fill="none" xmlns="http://www.w3.org/2000/svg">
<path d="M32.3572 0H3.03532C1.69175 0 0.600098 1.22991 0.600098 2.73973V35.2603C0.600098 36.7701 1.69175 38 3.03532 38H32.3572C33.7008 38 34.8001 36.7701 34.8001 35.2603V2.73973C34.8001 1.22991 33.7008 0 32.3572 0ZM10.9364 32.5714H5.86751V14.4366H10.9441V32.5714H10.9364ZM8.40197 11.9598C6.77595 11.9598 5.46291 10.4924 5.46291 8.6942C5.46291 6.89598 6.77595 5.42857 8.40197 5.42857C10.0204 5.42857 11.341 6.89598 11.341 8.6942C11.341 10.5009 10.028 11.9598 8.40197 11.9598ZM29.9373 32.5714H24.8684V23.75C24.8684 21.6464 24.8302 18.9406 22.2347 18.9406C19.5933 18.9406 19.1887 21.2308 19.1887 23.5973V32.5714H14.1198V14.4366H18.9826V16.9134H19.0513C19.7307 15.4884 21.3873 13.9871 23.853 13.9871C28.983 13.9871 29.9373 17.7446 29.9373 22.6304V32.5714Z" fill="white"/>
</svg>
