<svg width="26" height="26" viewBox="0 0 26 26" fill="none" xmlns="http://www.w3.org/2000/svg">
<path d="M4.33333 19.5C4.02639 19.5 3.76928 19.396 3.562 19.188C3.354 18.9807 3.25 18.7236 3.25 18.4167C3.25 18.1097 3.354 17.8526 3.562 17.6453C3.76928 17.4373 4.02639 17.3333 4.33333 17.3333H21.6667C21.9736 17.3333 22.2307 17.4373 22.438 17.6453C22.646 17.8526 22.75 18.1097 22.75 18.4167C22.75 18.7236 22.646 18.9807 22.438 19.188C22.2307 19.396 21.9736 19.5 21.6667 19.5H4.33333ZM4.33333 14.0833C4.02639 14.0833 3.76928 13.9793 3.562 13.7713C3.354 13.5641 3.25 13.3069 3.25 13C3.25 12.6931 3.354 12.4356 3.562 12.2276C3.76928 12.0203 4.02639 11.9167 4.33333 11.9167H21.6667C21.9736 11.9167 22.2307 12.0203 22.438 12.2276C22.646 12.4356 22.75 12.6931 22.75 13C22.75 13.3069 22.646 13.5641 22.438 13.7713C22.2307 13.9793 21.9736 14.0833 21.6667 14.0833H4.33333ZM4.33333 8.66667C4.02639 8.66667 3.76928 8.56303 3.562 8.35575C3.354 8.14775 3.25 7.89028 3.25 7.58333C3.25 7.27639 3.354 7.01892 3.562 6.81092C3.76928 6.60364 4.02639 6.5 4.33333 6.5H21.6667C21.9736 6.5 22.2307 6.60364 22.438 6.81092C22.646 7.01892 22.75 7.27639 22.75 7.58333C22.75 7.89028 22.646 8.14775 22.438 8.35575C22.2307 8.56303 21.9736 8.66667 21.6667 8.66667H4.33333Z" fill="white"/>
</svg>
