<svg width="35" height="31" viewBox="0 0 35 31" fill="none" xmlns="http://www.w3.org/2000/svg">
<path d="M30.8848 7.69162C30.9065 8.02917 30.9065 8.36679 30.9065 8.70434C30.9065 19 23.8539 30.863 10.9637 30.863C6.99246 30.863 3.30339 29.585 0.200195 27.3669C0.764431 27.4392 1.30689 27.4633 1.89283 27.4633C5.16957 27.4633 8.18599 26.2336 10.5948 24.1359C7.51328 24.0635 4.9309 21.8211 4.04116 18.7348C4.47521 18.8071 4.90919 18.8553 5.36495 18.8553C5.99425 18.8553 6.62361 18.7589 7.20949 18.5902C3.99781 17.8668 1.58897 14.7323 1.58897 10.9467V10.8503C2.52206 11.429 3.60718 11.7907 4.75723 11.8388C2.86928 10.4403 1.63239 8.05329 1.63239 5.35275C1.63239 3.90607 1.97954 2.57993 2.58719 1.42256C6.0376 6.14845 11.2241 9.2347 17.0398 9.57233C16.9313 8.99364 16.8661 8.39091 16.8661 7.7881C16.8661 3.49616 19.9911 0 23.8754 0C25.8936 0 27.7164 0.940355 28.9968 2.4594C30.5809 2.12185 32.0999 1.4708 33.4454 0.578686C32.9245 2.38711 31.8178 3.90615 30.3639 4.87055C31.7745 4.70185 33.1416 4.26774 34.4002 3.66501C33.4455 5.2081 32.2519 6.58241 30.8848 7.69162Z" fill="white"/>
</svg>
