<svg width="38" height="31" viewBox="0 0 38 31" fill="none" xmlns="http://www.w3.org/2000/svg">
<path d="M33.9848 7.69162C34.0084 8.02917 34.0084 8.36679 34.0084 8.70434C34.0084 19 26.3341 30.863 12.3076 30.863C7.98625 30.863 3.97197 29.585 0.595215 27.3669C1.20919 27.4392 1.79947 27.4633 2.43707 27.4633C6.00266 27.4633 9.285 26.2336 11.9061 24.1359C8.55298 24.0635 5.74295 21.8211 4.77478 18.7348C5.24709 18.8071 5.71933 18.8553 6.21526 18.8553C6.90004 18.8553 7.58488 18.7589 8.2224 18.5902C4.72761 17.8668 2.10642 14.7323 2.10642 10.9467V10.8503C3.12177 11.429 4.30254 11.7907 5.55397 11.8388C3.49959 10.4403 2.15367 8.05329 2.15367 5.35275C2.15367 3.90607 2.53141 2.57993 3.19263 1.42256C6.94721 6.14845 12.5909 9.2347 18.9193 9.57233C18.8012 8.99364 18.7303 8.39091 18.7303 7.7881C18.7303 3.49616 22.1307 0 26.3575 0C28.5536 0 30.5371 0.940355 31.9303 2.4594C33.6541 2.12185 35.307 1.4708 36.7711 0.578686C36.2043 2.38711 35.0001 3.90615 33.418 4.87055C34.9529 4.70185 36.4405 4.26774 37.8101 3.66501C36.7713 5.2081 35.4725 6.58241 33.9848 7.69162V7.69162Z" fill="white"/>
</svg>
